<svg xmlns="http://www.w3.org/2000/svg" width="758.101" height="769.482" viewBox="0 0 758.101 769.482"><g transform="translate(-744.231 -827.448)"><g opacity="0.5"><g opacity="0.3"><path d="M750.7,827.633c-13.222,24.178-4.766,53.357,12.524,73.055,18.457,21.027,45.357,34.253,71.663,42.529,56.49,17.773,116.924,13.207,175.16,10.422,58.416-2.793,120.551-3.809,174.784,21.352,25.318,11.746,48.3,29.288,63.587,52.91,14.555,22.493,21.345,50.47,12.516,76.407-8.057,23.669-27.917,45.042-53.346,49.23-14.126,2.327-29.514-1.027-40.7-10.171-11.374-9.3-16.183-23.786-15.345-38.167,1.763-30.239,27.19-54.247,51.036-69.81,12.819-8.366,27.16-14.418,42.535-15.616a89.707,89.707,0,0,1,39.252,6.125c26.886,10.434,47.435,31.863,59.151,57.953,12.264,27.309,15.018,58.086,11.551,87.589-3.855,32.8-14.91,64.206-27.326,94.628-11.99,29.377-25.285,58.447-33.174,89.285-7.583,29.641-8.9,60.062-.922,89.77,7.317,27.247,20.949,52.927,38.615,74.864,32.418,40.255,80.005,69.72,131.778,75.821a164.461,164.461,0,0,0,37.932.046c.474-.054.48-.8,0-.75-55.459,6.338-110.447-16.966-150.2-54.98a213.028,213.028,0,0,1-49.511-72.1,169.719,169.719,0,0,1-10.736-95.076c5.591-31.969,18.409-62.088,30.82-91.879,12.7-30.483,25.065-61.349,31.1-93.963,10.131-54.775-.183-120.5-50.675-152.7-21.848-13.933-49.267-19.843-74.426-12.228-14.01,4.241-26.623,12.136-38.011,21.185-11,8.738-21.382,18.669-28.937,30.6-13.564,21.42-16.308,52.985,5.424,70.3,19.421,15.475,47.113,13.086,66.536-.884a79.678,79.678,0,0,0,32.366-60.514c.934-26.081-11.124-51.09-28.035-70.325-38.369-43.64-98.655-57.663-154.4-60.367-60.792-2.949-121.494,6.491-182.268,2.109-30.751-2.218-61.6-8.022-89.784-20.9-26.842-12.265-54.646-31.68-63.518-61.337-4.359-14.573-3.745-30.546,3.631-44.034.232-.424-.415-.8-.647-.379Z" fill="#0054a6"/></g></g><circle cx="6" cy="6" r="6" transform="translate(1018.455 947.245)" fill="#f23f36"/><circle cx="3" cy="3" r="3" transform="translate(1228.114 1141.013)" fill="#0054a6"/><circle cx="4.5" cy="4.5" r="4.5" transform="translate(1293.071 1453.075)" fill="#f7941e"/></g></svg>