<?xml version="1.0" encoding="UTF-8"?>
<svg id="SVGDoc" width="491" height="499" xmlns="http://www.w3.org/2000/svg" version="1.1" xmlns:xlink="http://www.w3.org/1999/xlink" xmlns:avocode="https://avocode.com/" viewBox="0 0 491 499"><defs></defs><desc>Generated with Avocode.</desc><g><g><title>Group 10</title><g opacity="0.5"><title>Group 9</title><g opacity=".45"><title>Group 8</title><g opacity=".45"><title>Path 27</title><path d="M486.72101,0.56799c8.56198,15.65796 3.086,34.55298 -8.11102,47.31006c-11.95297,13.61694 -29.37299,22.18201 -46.409,27.54199c-36.58299,11.51001 -75.71999,8.55298 -113.43399,6.75c-37.83,-1.80908 -78.069,-2.46704 -113.189,13.8269c-16.396,7.60706 -31.28,18.96606 -41.179,34.26404c-9.426,14.56702 -13.823,32.68396 -8.106,49.48206c5.218,15.3269 18.079,29.16895 34.547,31.88098c9.148,1.50696 19.113,-0.66504 26.358,-6.58704c7.366,-6.021 10.48,-15.40393 9.937,-24.71704c-1.141,-19.58289 -17.608,-35.13 -33.05,-45.20898c-8.302,-5.41797 -17.589,-9.33691 -27.546,-10.11292c-8.641,-0.6731 -17.36,0.83899 -25.42,3.96692c-17.411,6.75708 -30.719,20.63403 -38.306,37.53003c-7.942,17.68604 -9.725,37.61707 -7.48,56.72302c2.496,21.24097 9.655,41.5791 17.696,61.28101c7.765,19.02393 16.375,37.8501 21.484,57.82104c4.91,19.19482 5.764,38.896 0.597,58.13501c-4.739,17.64502 -13.567,34.2749 -25.008,48.48193c-20.994,26.06909 -51.81,45.15088 -85.339,49.10107c-8.161,0.96191 -16.401,0.96289 -24.565,0.03003c-0.30699,-0.03516 -0.31,-0.521 0,-0.48608c35.91501,4.10498 71.526,-10.98706 97.27,-35.604c13.75,-13.14893 24.773,-29.11304 32.063,-46.69507c8.145,-19.64502 10.619,-40.60791 6.953,-61.57104c-3.621,-20.70288 -11.922,-40.20898 -19.96,-59.50098c-8.224,-19.74097 -16.232,-39.72998 -20.138,-60.84998c-6.56001,-35.47302 0.119,-78.03699 32.817,-98.88892c14.149,-9.02307 31.905,-12.85107 48.199,-7.91907c9.072,2.74597 17.241,7.85999 24.616,13.71997c7.122,5.65906 13.847,12.09009 18.739,19.81702c8.784,13.87109 10.561,34.31299 -3.513,45.52698c-12.577,10.021 -30.51,8.474 -43.088,-0.573c-12.371,-8.89697 -20.416,-23.96289 -20.96,-39.18896c-0.605,-16.89001 7.204,-33.08594 18.155,-45.54199c24.848,-28.26099 63.889,-37.34302 99.987,-39.09399c39.369,-1.90894 78.679,4.20398 118.037,1.36597c19.914,-1.43591 39.892,-5.19495 58.14301,-13.53394c17.383,-7.94202 35.38998,-20.51501 41.13501,-39.72107c2.823,-9.43799 2.42499,-19.78198 -2.35202,-28.51697c-0.14999,-0.27405 0.26901,-0.51904 0.42001,-0.245z" fill="#0054a6" fill-opacity="1"></path></g></g></g><g><title>Ellipse 16</title><path d="M305.5537,81.91416c0,-2.14596 1.73964,-3.8856 3.8856,-3.8856c2.14596,0 3.8856,1.73964 3.8856,3.8856c0,2.14596 -1.73964,3.8856 -3.8856,3.8856c-2.14596,0 -3.8856,-1.73964 -3.8856,-3.8856z" fill="#f23f36" fill-opacity="1"></path></g><g><title>Ellipse 17</title><path d="M173.66463,205.45525c0,-1.07298 0.86982,-1.9428 1.9428,-1.9428c1.07298,0 1.9428,0.86982 1.9428,1.9428c0,1.07298 -0.86982,1.9428 -1.9428,1.9428c-1.07298,0 -1.9428,-0.86982 -1.9428,-1.9428z" fill="#0054a6" fill-opacity="1"></path></g><g><title>Ellipse 18</title><path d="M129.65567,408.5182c0,-1.60947 1.30473,-2.9142 2.9142,-2.9142c1.60947,0 2.9142,1.30473 2.9142,2.9142c0,1.60947 -1.30473,2.9142 -2.9142,2.9142c-1.60947,0 -2.9142,-1.30473 -2.9142,-2.9142z" fill="#f7941e" fill-opacity="1"></path></g></g></g></svg>