<?xml version="1.0" encoding="UTF-8"?>
<svg id="SVGDoc" width="277" height="250" xmlns="http://www.w3.org/2000/svg" version="1.1" xmlns:xlink="http://www.w3.org/1999/xlink" xmlns:avocode="https://avocode.com/" viewBox="0 0 277 250"><defs></defs><desc>Generated with Avocode.</desc><g><g><title>Group 15</title><g><title>Ellipse 25</title><path d="M18.18174,135.90181c0,-62.69791 52.65416,-113.52461 117.60635,-113.52461c64.9522,0 117.60635,50.8267 117.60635,113.52461c0,62.69791 -52.65416,113.52461 -117.60635,113.52461c-64.9522,0 -117.60635,-50.8267 -117.60635,-113.52461z" fill="#d9f0f9" fill-opacity="1"></path></g><g><title>Ellipse 26</title><path d="M36.29726,131.24153c0,-62.69791 52.65416,-113.52461 117.60635,-113.52461c64.9522,0 117.60635,50.8267 117.60635,113.52461c0,62.69791 -52.65416,113.52461 -117.60635,113.52461c-64.9522,0 -117.60635,-50.8267 -117.60635,-113.52461z" fill-opacity="0" fill="#ffffff" stroke-dashoffset="0" stroke-linejoin="miter" stroke-linecap="butt" stroke-opacity="1" stroke="#9ee2f2" stroke-miterlimit="20" stroke-width="0.5"></path></g><g><title>Ellipse 27</title><path d="M5.2958,119.40193c0,-62.69791 52.65416,-113.52461 117.60635,-113.52461c64.9522,0 117.60635,50.8267 117.60635,113.52461c0,62.69791 -52.65416,113.52461 -117.60635,113.52461c-64.9522,0 -117.60635,-50.8267 -117.60635,-113.52461z" fill-opacity="0" fill="#ffffff" stroke-dashoffset="0" stroke-linejoin="miter" stroke-linecap="butt" stroke-opacity="1" stroke="#9ee2f2" stroke-miterlimit="20" stroke-width="0.5"></path></g></g></g></svg>