<svg xmlns="http://www.w3.org/2000/svg" width="46" height="46" viewBox="0 0 46 46"><g transform="translate(-844.366 -3376.869)"><g transform="translate(844.366 3376.869)" fill="none" stroke="#fff" stroke-miterlimit="10" stroke-width="0" opacity="0.6"><circle cx="23" cy="23" r="23" stroke="none"/><circle cx="23" cy="23" r="22.25" fill="none"/></g><g opacity="0.6"><path d="M871.447,3391.334h-8.69a5.017,5.017,0,0,0-5.01,5v8.7a5.017,5.017,0,0,0,5.01,5h8.69a5.023,5.023,0,0,0,5.01-5v-8.7A5.023,5.023,0,0,0,871.447,3391.334Zm-4.35,14.06a4.71,4.71,0,1,1,4.71-4.71A4.712,4.712,0,0,1,867.1,3405.394Zm4.97-8.71a1.57,1.57,0,1,1,1.57-1.57A1.573,1.573,0,0,1,872.067,3396.684Z" fill="#fff"/><circle cx="3.5" cy="3.5" r="3.5" transform="translate(863.597 3397.184)" fill="#fff"/><circle cx="0.5" cy="0.5" r="0.5" transform="translate(871.567 3394.615)" fill="#fff"/></g></g></svg>