<svg xmlns="http://www.w3.org/2000/svg" width="85.673" height="47.044" viewBox="0 0 85.673 47.044"><g transform="translate(-674.955 -34.576)"><path d="M733.691,63.888v-5.82c0-2.661-2.884-3.122-4.472-3.122-2.193,0-4.458.425-4.947,3.343h2.865c.161-.535.561-1.083,1.729-1.083.75,0,1.941.06,1.941,1.261,0,.519-.457.84-1.711.94-2.82.222-5.239,1.24-5.239,3.72a3.091,3.091,0,0,0,3.4,3.142,4.672,4.672,0,0,0,3.633-1.561,4.889,4.889,0,0,0,.271,1.281h3.176v-.441c-.356-.119-.647-.4-.647-1.66m-2.884-1.76a2.423,2.423,0,0,1-2.628,2.121,1.265,1.265,0,0,1-1.38-1.3c0-1.159.9-1.44,2.006-1.619a4.5,4.5,0,0,0,2-.581Z" fill="#03bcf4"/><path d="M695.563,63.888v-5.82c0-2.661-2.884-3.122-4.471-3.122-2.194,0-4.458.425-4.947,3.343h2.865c.161-.535.559-1.083,1.728-1.083.752,0,1.941.06,1.941,1.261,0,.519-.456.84-1.711.94-2.82.222-5.238,1.24-5.238,3.72a3.091,3.091,0,0,0,3.4,3.142,4.67,4.67,0,0,0,3.632-1.561,4.886,4.886,0,0,0,.273,1.281h3.175v-.441c-.355-.119-.648-.4-.648-1.66m-2.884-1.76a2.422,2.422,0,0,1-2.627,2.121,1.264,1.264,0,0,1-1.379-1.3c0-1.159.9-1.44,2-1.619a4.486,4.486,0,0,0,2-.581Z" fill="#03bcf4"/><path d="M760.628,77.324,742.144,60.493l6.141-8.243h-3.463l-5.8,7.877V34.576h-2.818V66h2.818V61.16l17.53,16.165Z" fill="#03bcf4"/><path d="M738.639,39.427a21.129,21.129,0,0,0-19.407,12.824h2.954a18.421,18.421,0,1,1,0,16.545h-2.954a21.1,21.1,0,1,0,19.407-29.369Z" fill="#03bcf4"/><path d="M677.987,65.989h-3.032V51.321h10.41v2.593h-7.378v3.753h5.844v2.594h-5.844Z" fill="#03bcf4"/><path d="M697.932,55.121h2.737V57h.042c.593-1.1,1.246-2.166,2.983-2.166a4.864,4.864,0,0,1,.551.041v2.9a5.449,5.449,0,0,0-.817-.04,2.311,2.311,0,0,0-2.636,2.594v5.659h-2.86Z" fill="#03bcf4"/><path d="M721.8,65.989h-2.883v-6.6c0-1.613-.72-2.144-1.564-2.144-1.441,0-1.957.939-1.957,2.227v6.517h-2.882V59.451c0-.919,0-2.206-1.73-2.206-1.359,0-1.79.939-1.79,2.124v6.62h-2.884V55.121h2.759v1.592h.042a3.258,3.258,0,0,1,3.109-1.879,3.135,3.135,0,0,1,3.047,1.736,3.42,3.42,0,0,1,2.923-1.736,3.483,3.483,0,0,1,3.81,3.636Z" fill="#03bcf4"/></g></svg>