<svg preserveAspectRatio="none" xmlns="http://www.w3.org/2000/svg" width="797.167" height="673.619" viewBox="0 0 797.167 673.619"><g transform="translate(0.462 0.309)" opacity="0.2"><path d="M638.49,0c87.82,187.09-52.03,479.16-367.48,410.14C151.12,383.91,63.54,407.89,0,451.89" fill="none" stroke="#00aeef" stroke-miterlimit="10" stroke-width="1"/><path d="M643.24,0c89.84,187-49.87,481.48-366.49,412.21C153.21,385.18,63.98,411.47,0,458.04" fill="none" stroke="#00aeef" stroke-miterlimit="10" stroke-width="1"/><path d="M647.97,0c91.87,186.89-47.7,483.8-365.49,414.27C155.2,386.42,64.35,415.17,0,464.37" fill="none" stroke="#00aeef" stroke-miterlimit="10" stroke-width="1"/><path d="M652.68,0c93.93,186.75-45.5,486.12-364.46,416.34C157.11,387.66,64.65,419.02,0,470.94" fill="none" stroke="#00aeef" stroke-miterlimit="10" stroke-width="1"/><path d="M657.36,0c96.01,186.6-43.26,488.45-363.41,418.41C158.92,388.87,64.88,423.02,0,477.72" fill="none" stroke="#00aeef" stroke-miterlimit="10" stroke-width="1"/><path d="M662.03,0c98.1,186.43-41.02,490.77-362.34,420.47C160.62,390.04,65.04,427.18,0,484.75" fill="none" stroke="#00aeef" stroke-miterlimit="10" stroke-width="1"/><path d="M666.66,0C766.9,186.23,627.95,493.1,305.43,422.54,162.21,391.21,65.11,431.53,0,492.02" fill="none" stroke="#00aeef" stroke-miterlimit="10" stroke-width="1"/><path d="M671.26,0c102.41,186.02-36.39,495.43-360.1,424.61C163.69,392.35,65.11,436.06,0,499.53" fill="none" stroke="#00aeef" stroke-miterlimit="10" stroke-width="1"/><path d="M675.85,0C780.42,185.79,641.81,497.75,316.9,426.67,165.02,393.44,65,440.8,0,507.34" fill="none" stroke="#00aeef" stroke-miterlimit="10" stroke-width="1"/><path d="M680.42,0c106.77,185.53-31.67,500.09-357.79,428.74C166.21,394.52,64.8,445.77,0,515.42" fill="none" stroke="#00aeef" stroke-miterlimit="10" stroke-width="1"/><path d="M684.95,0C793.96,185.25,655.7,502.42,328.37,430.8,167.25,395.55,64.49,450.99,0,523.81" fill="none" stroke="#00aeef" stroke-miterlimit="10" stroke-width="1"/><path d="M689.46,0c111.26,184.94-26.8,504.75-355.36,432.87C168.14,396.56,64.1,456.48,0,532.49" fill="none" stroke="#00aeef" stroke-miterlimit="10" stroke-width="1"/><path d="M693.93,0c113.56,184.62-24.31,507.09-354.09,434.94C168.83,397.53,63.56,462.28,0,541.54" fill="none" stroke="#00aeef" stroke-miterlimit="10" stroke-width="1"/><path d="M698.38,0c115.86,184.27-21.79,509.42-352.81,437C169.3,398.44,62.89,468.42,0,550.95" fill="none" stroke="#00aeef" stroke-miterlimit="10" stroke-width="1"/><path d="M702.8,0c118.21,183.89-19.23,511.76-351.49,439.07C169.57,399.31,62.08,474.94,0,560.74" fill="none" stroke="#00aeef" stroke-miterlimit="10" stroke-width="1"/><path d="M707.19,0c120.59,183.48-16.63,514.11-350.14,441.14C169.57,400.12,61.11,481.89,0,570.95" fill="none" stroke="#00aeef" stroke-miterlimit="10" stroke-width="1"/><path d="M711.56,0c122.98,183.05-14.02,516.44-348.78,443.2C169.29,400.87,59.97,489.33,0,581.61" fill="none" stroke="#00aeef" stroke-miterlimit="10" stroke-width="1"/><path d="M715.89,0c125.42,182.6-11.35,518.79-347.37,445.27C168.69,401.55,58.64,497.32,0,592.74" fill="none" stroke="#00aeef" stroke-miterlimit="10" stroke-width="1"/><path d="M720.2,0c127.87,182.12-8.66,521.13-345.95,447.33C167.73,402.15,57.09,505.97,0,604.4" fill="none" stroke="#00aeef" stroke-miterlimit="10" stroke-width="1"/><path d="M724.46,0c130.38,181.61-5.9,523.47-344.47,449.4C166.31,402.65,55.28,515.41,0,616.68" fill="none" stroke="#00aeef" stroke-miterlimit="10" stroke-width="1"/><path d="M728.7,0c132.91,181.07-3.11,525.83-342.98,451.47C164.39,403.05,53.19,525.76,0,629.57" fill="none" stroke="#00aeef" stroke-miterlimit="10" stroke-width="1"/><path d="M732.9,0c135.49,180.49-.28,528.17-341.44,453.53C161.84,403.29,50.75,537.26,0,643.21" fill="none" stroke="#00aeef" stroke-miterlimit="10" stroke-width="1"/><path d="M737.06,0c138.1,179.89,2.6,530.53-339.87,455.6C158.5,403.38,47.9,550.19,0,657.69" fill="none" stroke="#00aeef" stroke-miterlimit="10" stroke-width="1"/><path d="M741.19,0c140.75,179.25,5.52,532.88-338.26,457.67C154.18,403.25,44.54,564.99,0,673.12" fill="none" stroke="#00aeef" stroke-miterlimit="10" stroke-width="1"/></g></svg>