<svg xmlns="http://www.w3.org/2000/svg" width="1589.288" height="326.494" viewBox="0 0 1589.288 326.494"><g transform="translate(28.241 -2601.835)" opacity="0.1"><path d="M-19.872,2634.745c107.056-43.369,228.739-40.09,340.344-10.32s214.823,84.511,314.636,142.64c74.928,43.636,149.124,89.706,230.265,120.274,227.211,85.6,500.393,33.418,680.06-129.9" fill="none" stroke="#00aeef" stroke-miterlimit="10" stroke-width="0.5"/><path d="M-20.467,2644.563c103.685-39.546,220.762-34.96,328.554-6.09,119.247,32.246,233.24,80.566,340.359,132.742,76.152,37.092,149.744,79.2,230.742,106.8,223.566,76.161,490.09,31.242,667.35-113.511" fill="none" stroke="#00aeef" stroke-miterlimit="10" stroke-width="0.5"/><path d="M-21.061,2654.382c100.312-35.724,212.845-30.056,316.764-1.862a3346.011,3346.011,0,0,1,366.082,122.845c76.965,30.861,150.329,68.728,231.217,93.318,219.826,66.827,479.788,29.065,654.642-97.127" fill="none" stroke="#00aeef" stroke-miterlimit="10" stroke-width="0.5"/><path d="M-21.656,2664.2c96.941-31.9,204.887-24.993,304.974,2.367,134.641,36.806,268.505,73.172,391.8,112.948,77.444,24.983,150.883,58.285,231.693,79.84,216,57.611,469.487,26.889,641.933-80.742" fill="none" stroke="#00aeef" stroke-miterlimit="10" stroke-width="0.5"/><path d="M-22.251,2674.019c93.569-28.079,196.922-19.906,293.185,6.6,142.312,39.18,285.529,69.965,417.527,103.05,77.673,19.469,151.405,47.882,232.169,66.361,212.08,48.525,459.185,24.714,629.225-64.357" fill="none" stroke="#00aeef" stroke-miterlimit="10" stroke-width="0.5"/><path d="M-22.846,2683.837c90.2-24.256,188.951-14.8,281.4,10.825,149.98,41.572,302.287,67.213,443.251,93.154,77.731,14.3,151.9,37.524,232.644,52.882,208.092,39.58,448.883,22.537,616.516-47.972" fill="none" stroke="#00aeef" stroke-miterlimit="10" stroke-width="0.5"/><path d="M-23.441,2693.656c86.826-20.434,180.976-9.675,269.606,15.054,157.641,43.982,318.881,64.978,468.973,83.256,77.7,9.461,152.372,27.22,233.12,39.4,204.042,30.787,438.581,20.361,603.808-31.588" fill="none" stroke="#00aeef" stroke-miterlimit="10" stroke-width="0.5"/><path d="M-24.035,2703.474c83.454-16.611,173-4.535,257.815,19.283,165.3,46.416,338.674,39.754,494.7,73.359,76.037,16.377,152.825,16.975,233.6,25.925,199.946,22.157,428.279,18.186,591.1-15.2" fill="none" stroke="#00aeef" stroke-miterlimit="10" stroke-width="0.5"/><path d="M-24.63,2713.293c80.083-12.789,165.013.617,246.026,23.511,172.946,48.875,353.766,38.917,520.419,63.462,76.75,11.3,153.269,6.8,234.072,12.447,195.824,13.7,417.977,16.009,578.389,1.182" fill="none" stroke="#00aeef" stroke-miterlimit="10" stroke-width="0.5"/><path d="M-25.225,2723.111c76.711-8.966,157.027,5.781,234.236,27.741,180.587,51.363,368.994,39.787,546.142,53.564,77.428,6.022,153.709-3.31,234.548-1.031,191.694,5.4,407.675,13.833,565.681,17.567" fill="none" stroke="#00aeef" stroke-miterlimit="10" stroke-width="0.5"/><path d="M-25.82,2732.93c73.34-5.144,149.038,10.953,222.447,31.969,188.218,53.884,385.483,61.6,571.865,43.667,77.671-7.473,154.162-16.082,235.023-14.509,187.564,3.646,397.373,11.657,552.972,33.951" fill="none" stroke="#00aeef" stroke-miterlimit="10" stroke-width="0.5"/><path d="M-26.414,2742.748c69.967-1.321,141.046,16.136,210.656,36.2,195.838,56.444,402.549,62.066,597.588,33.77,77.866-11.3,154.618-23.289,235.5-27.988,183.505-10.661,387.072,9.481,540.264,50.337" fill="none" stroke="#00aeef" stroke-miterlimit="10" stroke-width="0.5"/><path d="M-27.009,2752.567c66.6,2.5,133.052,21.324,198.867,40.427,203.443,59.049,419.875,62.968,623.31,23.872,78.177-15.023,155.107-33.154,235.976-41.466,179.492-18.448,376.769,7.305,527.554,66.721" fill="none" stroke="#00aeef" stroke-miterlimit="10" stroke-width="0.5"/><path d="M-27.6,2762.385c63.224,6.323,125.035,26.593,187.077,44.656,210.962,61.954,437.486,64.253,649.034,13.976,78.609-18.683,155.634-42.938,236.451-54.945,175.567-26.085,366.467,5.128,514.846,83.106" fill="none" stroke="#00aeef" stroke-miterlimit="10" stroke-width="0.5"/><path d="M-28.2,2772.2c59.853,10.145,117.058,31.722,175.288,48.885,218.6,64.429,455.389,65.86,674.756,4.078,79.164-22.3,156.212-52.64,236.927-68.424,171.754-33.585,356.165,2.953,502.137,99.491" fill="none" stroke="#00aeef" stroke-miterlimit="10" stroke-width="0.5"/></g></svg>